<?xml version="1.0" standalone="no"?>
<!DOCTYPE svg PUBLIC "-//W3C//DTD SVG 20010904//EN"
 "http://www.w3.org/TR/2001/REC-SVG-20010904/DTD/svg10.dtd">
<svg version="1.0" xmlns="http://www.w3.org/2000/svg"
 width="600.000000pt" height="600.000000pt" viewBox="0 0 600.000000 600.000000"
 preserveAspectRatio="xMidYMid meet">
<metadata>
Created by potrace 1.11, written by Peter Selinger 2001-2013
</metadata>
<g transform="translate(0.000000,600.000000) scale(0.100000,-0.100000)"
fill="#000000" stroke="none">
<path d="M5519 5676 c-19 -19 -340 -40 -914 -60 -555 -19 -654 -24 -680 -38
-27 -15 -2131 -1966 -2197 -2038 -47 -50 -46 -73 2 -117 41 -36 47 -38 129
-44 51 -4 173 1 301 12 118 9 245 15 282 12 l66 -6 -21 -31 c-11 -17 -249
-254 -528 -526 -483 -472 -550 -543 -537 -580 2 -7 30 -22 61 -34 51 -19 69
-21 154 -14 54 4 101 4 105 2 4 -3 67 2 139 11 72 9 133 14 135 12 5 -5 -783
-902 -886 -1007 -45 -47 -76 -76 -69 -65 14 20 13 20 -9 1 -12 -11 -22 -25
-22 -32 0 -12 -49 -66 -517 -568 -255 -272 -258 -278 -205 -329 28 -27 29 -27
63 -12 44 21 128 73 171 106 18 15 784 540 1703 1167 919 627 1681 1149 1694
1159 33 27 24 85 -17 102 -19 8 -173 14 -455 20 -286 5 -431 11 -439 19 -7 7
0 20 27 44 33 29 1602 1054 1763 1152 32 19 63 46 69 58 17 38 4 83 -35 121
l-37 35 -460 4 c-372 3 -464 6 -481 17 -20 13 32 48 845 569 748 478 874 562
923 615 63 69 66 90 21 157 -12 19 -23 40 -23 47 0 30 -100 79 -121 59z"/>
<path d="M5671 5573 c7 -12 15 -20 18 -17 3 2 -3 12 -13 22 -17 16 -18 16 -5
-5z"/>
<path d="M1432 1758 c-64 -96 -65 -98 -53 -98 11 0 32 30 85 123 42 71 23 56
-32 -25z"/>
<path d="M1267 1503 c-4 -3 -7 -11 -7 -17 0 -6 5 -5 12 2 6 6 9 14 7 17 -3 3
-9 2 -12 -2z"/>
</g>
</svg>
